<?xml version="1.0" encoding="utf-8"?>
<!-- Generator: Adobe Illustrator 25.2.3, SVG Export Plug-In . SVG Version: 6.00 Build 0)  -->
<svg version="1.1" id="Layer_1" xmlns="http://www.w3.org/2000/svg" xmlns:xlink="http://www.w3.org/1999/xlink" x="0px" y="0px"
	 viewBox="0 0 160 30" style="enable-background:new 0 0 160 30;" xml:space="preserve">
<style type="text/css">
	.st0{fill:#CCCBCB;}
</style>
<g>
	<path class="st0" d="M13,28.5c-0.8-0.4-1.6-1-2.2-1.8c-0.6-0.8-1.2-1.6-1.5-2.6c-0.4-1-0.6-2.1-0.6-3.2c0-6.8,5.7-10.5,5-17.3
		c0-0.4-0.1-0.8-0.2-1.1C13.4,2,13.2,1.7,13,1.5c0.8,0.4,1.6,1,2.2,1.8c0.6,0.8,1.2,1.6,1.5,2.6s0.6,2.1,0.6,3.2
		c0,5.9-5.4,10.2-5.4,16.5c0,0.6,0.1,1.1,0.3,1.6C12.4,27.7,12.7,28.1,13,28.5"/>
	<polygon class="st0" points="33.4,21.6 33.4,15.3 27.5,15.3 27.5,21.6 25,21.6 25,7.4 27.5,7.4 27.5,13.3 33.4,13.3 33.4,7.4 
		35.9,7.4 35.9,21.6 	"/>
	<path class="st0" d="M39.6,17.3c0.1,2.1,1.2,2.6,2.9,2.6c1.5,0,2.8-0.2,3.9-0.3l0.2,1.8c-1.2,0.2-2.6,0.4-4.7,0.4
		c-3.7,0-4.6-2.4-4.6-5.6c0-3.9,1.2-5.6,4.8-5.6c3.9,0,4.8,2.1,4.8,5.3c0,0.3,0,0.5,0,0.8c-1.2,0.3-3.8,0.5-5.4,0.6L39.6,17.3z
		 M41.8,15.6c0.8,0,2.1-0.2,2.8-0.3c0-0.2,0-0.3,0-0.5c0-1.7-0.6-2.6-2.4-2.6c-2.3,0-2.6,1.4-2.6,3.4L41.8,15.6z"/>
	<path class="st0" d="M48.1,18.4c0-1.9,0.8-3.1,2.9-3.4c1.2-0.2,2.5-0.3,3.8-0.3c0-1.5-0.7-2.3-2.3-2.3c-1.3,0-2.7,0.1-3.8,0.3
		L48.6,11c1.2-0.2,2.6-0.4,4.2-0.4c2.4,0,4.4,0.6,4.4,3.4v4.8c0,0.7,0,1.3-0.1,2c-1.2,0.7-2.8,0.9-4.9,0.9
		C49.3,21.8,48.1,20.6,48.1,18.4 M54.9,16.2c-0.9,0-2.1,0-3,0.3c-1.1,0.3-1.6,0.6-1.6,1.9c0,1.3,0.8,1.7,2.2,1.7
		c0.7,0,1.6,0,2.3-0.3c0-0.4,0.1-0.9,0.1-1.5L54.9,16.2L54.9,16.2L54.9,16.2z"/>
	<path class="st0" d="M59,6.5h2.3v12.2c0,1,0.3,1.7,0.8,2.5l-2,0.9c-0.7-0.8-1.1-1.8-1.1-3.3L59,6.5L59,6.5z"/>
	<path class="st0" d="M69.6,21.6c-0.5,0.1-1.2,0.2-1.6,0.2c-2.2,0-3.1-0.9-3.1-3v-6.3h-1.8v-1.7h1.8V8l2.3-0.4v3.1h2.3v1.7h-2.3v6.2
		c0,1,0.4,1.4,1.5,1.4c0.3,0,0.6,0,0.8,0L69.6,21.6z"/>
	<path class="st0" d="M80.6,21.6h-2.3v-6.7c0-1.8-0.3-2.5-2.6-2.5c-0.7,0-1.5,0.2-2.1,0.4v8.8h-2.3V6.5h2.3V11
		c0.8-0.3,1.7-0.4,2.7-0.4c3.8,0,4.3,1.8,4.3,4.1L80.6,21.6L80.6,21.6z"/>
	<path class="st0" d="M92.3,9.5c-0.9-0.2-1.8-0.3-2.8-0.3c-3.8,0-3.8,2.2-3.8,5.2c0,3,0,5.2,3.8,5.2c0.9,0,1.9-0.1,2.8-0.3l0.3,1.9
		c-0.9,0.3-2.2,0.4-3.6,0.4c-4.7,0-5.8-2.2-5.8-7.3s1.2-7.3,5.8-7.3c1.4,0,2.7,0.2,3.6,0.4L92.3,9.5z"/>
	<path class="st0" d="M94,18.4c0-1.9,0.8-3.1,2.9-3.4c1.2-0.2,2.5-0.3,3.8-0.3c0-1.5-0.7-2.3-2.3-2.3c-1.3,0-2.7,0.1-3.8,0.3
		L94.5,11c1.2-0.2,2.6-0.4,4.2-0.4c2.4,0,4.4,0.6,4.4,3.4v4.8c0,0.7,0,1.3-0.1,2c-1.2,0.7-2.8,0.9-4.9,0.9
		C95.1,21.8,94,20.6,94,18.4 M100.8,16.2c-0.9,0-2.1,0-3,0.3c-1.1,0.3-1.6,0.6-1.6,1.9c0,1.3,0.8,1.7,2.2,1.7c0.7,0,1.6,0,2.3-0.3
		c0-0.4,0.1-0.9,0.1-1.5L100.8,16.2L100.8,16.2L100.8,16.2z"/>
	<path class="st0" d="M110.8,21.6c-0.5,0.1-1.2,0.2-1.6,0.2c-2.2,0-3.1-0.9-3.1-3v-6.3h-1.8v-1.7h1.8V8l2.3-0.4v3.1h2.3v1.7h-2.3
		v6.2c0,1,0.4,1.4,1.5,1.4c0.3,0,0.6,0,0.8,0L110.8,21.6z"/>
	<path class="st0" d="M112.5,18.4c0-1.9,0.8-3.1,2.9-3.4c1.2-0.2,2.5-0.3,3.8-0.3c0-1.5-0.7-2.3-2.3-2.3c-1.3,0-2.7,0.1-3.8,0.3
		L113,11c1.2-0.2,2.6-0.4,4.2-0.4c2.4,0,4.4,0.6,4.4,3.4v4.8c0,0.7,0,1.3-0.1,2c-1.2,0.7-2.8,0.9-4.9,0.9
		C113.6,21.8,112.5,20.6,112.5,18.4 M119.2,16.2c-0.9,0-2.1,0-3,0.3c-1.1,0.3-1.6,0.6-1.6,1.9c0,1.3,0.8,1.7,2.2,1.7
		c0.7,0,1.6,0,2.3-0.3c0-0.4,0.1-0.9,0.1-1.5L119.2,16.2L119.2,16.2L119.2,16.2z"/>
	<path class="st0" d="M123,6.5h2.3v12.2c0,1,0.3,1.7,0.8,2.5l-2,0.9c-0.7-0.8-1.1-1.8-1.1-3.3L123,6.5L123,6.5z"/>
	<polygon class="st0" points="132.4,18 134.7,10.7 137.1,10.7 132,25.6 129.6,25.6 131.3,20.9 126.9,10.7 129.4,10.7 	"/>
	<path class="st0" d="M142.9,18.6c0-1.2-1.1-1.3-2.2-1.7c-1.8-0.5-3.4-1-3.4-3.3c0-2.4,1.7-3.1,3.8-3.1c1.5,0,2.6,0.1,3.8,0.4
		l-0.3,1.7c-0.8-0.2-1.8-0.3-2.7-0.3c-0.9,0-2.5,0-2.5,1.1c0,1.2,1.3,1.3,2.2,1.7c1.9,0.6,3.4,1,3.4,3.4c0,2.5-1.9,3.2-4.3,3.2
		c-1.2,0-2.6-0.2-3.8-0.4l0.3-1.8c0.8,0.2,2,0.3,2.9,0.3C141.2,19.9,142.9,19.9,142.9,18.6"/>
	<path class="st0" d="M153.2,21.6c-0.5,0.1-1.2,0.2-1.6,0.2c-2.2,0-3.1-0.9-3.1-3v-6.3h-1.8v-1.7h1.8V8l2.3-0.4v3.1h2.3v1.7h-2.3
		v6.2c0,1,0.4,1.4,1.5,1.4c0.3,0,0.6,0,0.8,0L153.2,21.6z"/>
	<path class="st0" d="M18.1,28.1c-0.6-0.3-1.1-0.7-1.5-1.2c-0.4-0.5-0.8-1.1-1-1.8c-0.2-0.7-0.4-1.4-0.4-2.2c0-4.6,4.2-7.1,3.5-13
		c0.8,0.7,1.5,2,1.9,3c0.2,0.7,0.4,1.4,0.4,2.2c0,3.9-3.6,6.8-3.6,11c0,0.4,0.1,0.8,0.2,1.1C17.7,27.6,17.9,27.9,18.1,28.1"/>
	<path class="st0" d="M7.6,20.4c-0.6-0.3-1.1-0.7-1.5-1.2c-0.4-0.5-0.8-1.1-1-1.8c-0.2-0.7-0.4-1.4-0.4-2.2c0-4.6,4.2-7.1,3.5-13
		c0.8,0.7,1.5,2,1.9,3c0.2,0.7,0.4,1.4,0.4,2.2c0,3.9-3.6,6.8-3.6,11c0,0.4,0.1,0.8,0.2,1.1C7.2,19.9,7.4,20.2,7.6,20.4"/>
	<path class="st0" d="M155.3,7.6c0,0.6-0.5,1.1-1.1,1.1c-0.6,0-1.1-0.5-1.1-1.1c0-0.6,0.5-1.1,1.1-1.1C154.8,6.6,155.3,7,155.3,7.6z
		 M153.4,7.6c0,0.5,0.3,0.8,0.8,0.8c0.5,0,0.8-0.4,0.8-0.8c0-0.5-0.3-0.9-0.8-0.9C153.7,6.8,153.4,7.2,153.4,7.6z M154,8.2h-0.2V7.1
		c0.1,0,0.2,0,0.4,0c0.2,0,0.3,0,0.4,0.1c0.1,0,0.1,0.1,0.1,0.2c0,0.1-0.1,0.2-0.2,0.2v0c0.1,0,0.2,0.1,0.2,0.3
		c0,0.2,0.1,0.2,0.1,0.3h-0.3c0,0-0.1-0.1-0.1-0.3c0-0.1-0.1-0.2-0.2-0.2H154V8.2z M154.1,7.6h0.1c0.1,0,0.2,0,0.2-0.2
		c0-0.1-0.1-0.2-0.2-0.2c-0.1,0-0.1,0-0.1,0V7.6z"/>
</g>
</svg>
