<?xml version="1.0" encoding="utf-8"?>
<!-- Generator: Adobe Illustrator 25.2.3, SVG Export Plug-In . SVG Version: 6.00 Build 0)  -->
<svg version="1.1" id="Layer_1" xmlns="http://www.w3.org/2000/svg" xmlns:xlink="http://www.w3.org/1999/xlink" x="0px" y="0px"
	 viewBox="0 0 30 30" style="enable-background:new 0 0 30 30;" xml:space="preserve">
<style type="text/css">
	.st0{fill:#CCCBCB;}
</style>
<path class="st0" d="M5.1,5.1v19.7h19.7V5.1H5.1z M19.4,12.7c0,0.1,0,0.2,0,0.3c0,3-2.3,6.5-6.5,6.5c-1.2,0-2.4-0.4-3.5-1
	c0.2,0,0.4,0,0.5,0c1,0,2-0.3,2.8-1c-1,0-1.8-0.7-2.1-1.6c0.3,0.1,0.7,0.1,1,0c-1.1-0.2-1.8-1.1-1.8-2.2v0c0.3,0.2,0.7,0.3,1,0.3
	c-1-0.7-1.3-2-0.7-3c1.2,1.4,2.9,2.3,4.7,2.4c0-0.2-0.1-0.3-0.1-0.5c0-0.6,0.3-1.2,0.7-1.7c0.9-0.9,2.3-0.8,3.2,0.1
	c0.5-0.1,1-0.3,1.4-0.6c-0.2,0.5-0.5,1-1,1.3c0.4-0.1,0.9-0.2,1.3-0.4C20.2,12,19.8,12.4,19.4,12.7z"/>
</svg>
