<svg xmlns="http://www.w3.org/2000/svg" xmlns:xlink="http://www.w3.org/1999/xlink" id="Layer_1" x="0" y="0" version="1.1" viewBox="0 0 30 30" xml:space="preserve" style="enable-background:new 0 0 30 30"><style type="text/css">.st0{fill:#cccbcb}</style><path d="M5.1,5.1v19.7h19.7V5.1H5.1z M20.5,19.9c0,0.3-0.3,0.6-0.6,0.6h-2.8v-4.3h1.4l0.2-1.7h-1.7v-1.1	c0-0.5,0.1-0.8,0.8-0.8h0.9v-1.5c-0.4,0-0.9-0.1-1.3-0.1c-1.3,0-2.1,0.8-2.1,2.2v1.2h-1.4v1.7h1.4v4.3h-5.3c-0.3,0-0.6-0.3-0.6-0.6	v-9.8c0-0.3,0.3-0.6,0.6-0.6h9.8c0.3,0,0.6,0.3,0.6,0.6V19.9z" class="st0"/></svg>