<?xml version="1.0" encoding="utf-8"?>
<!-- Generator: Adobe Illustrator 25.2.3, SVG Export Plug-In . SVG Version: 6.00 Build 0)  -->
<svg version="1.1" id="Layer_1" xmlns="http://www.w3.org/2000/svg" xmlns:xlink="http://www.w3.org/1999/xlink" x="0px" y="0px"
	 viewBox="0 0 30 30" style="enable-background:new 0 0 30 30;" xml:space="preserve">
<style type="text/css">
	.st0{fill:#CCCBCB;}
</style>
<path class="st0" d="M5.1,5.1v19.7h19.7V5.1H5.1z M11.9,20.5H9.6v-7.4h2.3V20.5z M10.8,12.1c-0.7,0-1.3-0.6-1.3-1.3v0
	c0-0.7,0.6-1.3,1.3-1.3c0.7,0,1.3,0.6,1.3,1.3C12.1,11.5,11.5,12.1,10.8,12.1z M20.5,20.5h-2.3v-3.6c0-0.9,0-2-1.2-2
	s-1.4,0.9-1.4,1.9v3.6h-2.3l0-7.4h2.2v1h0c0.4-0.8,1.3-1.2,2.2-1.2c2.3,0,2.7,1.5,2.7,3.5V20.5z"/>
</svg>
